<svg xmlns="http://www.w3.org/2000/svg" width="65" height="65" fill="none"><rect width="59.583" height="59.583" x="2.708" y="2.708" fill="#F40000" stroke="#fff" stroke-width="4.583" rx="29.792"/><path fill="#fff" fill-rule="evenodd" d="M13.165 30.565c1.147-2.121 3.128-4.435 5.468-5.208.48-.12 1.119-.255 1.545.074.379.28.43.76.344 1.193-.113.512-.463 1.159-1.049 1.241a.345.345 0 0 1-.263-.111c-.153-.149-.142-.365-.11-.56.097-.406.473-.837.906-.893.074-.048.043-.137.022-.2-.058-.09-.126-.16-.232-.18-.469-.055-.823.239-1.183.486-1.365 1.097-2.356 2.508-3.189 3.913-.68 1.264-1.26 2.57-1.428 4.046-.083 1.07.257 2.122 1.21 2.637 1.032.547 2.367.177 3.402-.105l.95-.292 1.828-.542c1.732-.506 3.9-.62 5.591.051 1.022.426 2.075 1.01 2.741 2.014 0 .026 0 .058-.032.053-1.449-.396-3.336-.787-4.773-.101l-.069-.016c-.435-.698-1.172-1.086-1.926-1.236-2.436-.235-4.44.918-6.73 1.206-1.16.106-2.405.07-3.214-.818-1.278-1.276-1.127-3.528-.52-5.066.196-.543.44-1.07.711-1.586Z" clip-rule="evenodd"/><path fill="#fff" fill-rule="evenodd" d="M26.193 32.51c-.08.263-.202.547-.119.838.026.058.09.1.147.116.238.007.397-.21.55-.378.695-.962 1.226-2 1.704-3.053.08-.221.207-.426.203-.675-.005-.052-.058-.09-.1-.116-.105-.048-.206.026-.29.068-.936.719-1.441 1.751-1.909 2.73l-.186.47Zm-7.144-2.457c.02.317.314.592.593.698.069.022.18.075.238-.01.106-.2.17-.42.224-.642.053-.29.097-.68-.182-.87a.397.397 0 0 0-.337-.013c-.318.157-.545.478-.536.837Zm-.907 1.22c-.297.601-.6 1.207-.613 1.918.032.133.11.286.258.323.158.043.29-.041.412-.12.581-.488.985-1.157 1.314-1.8.027-.062.074-.141.038-.21a2.577 2.577 0 0 1-.953-.678l-.058-.011c-.053.01-.074.063-.11.1l-.288.479Zm-1.614.053c.606-1.11 1.533-2.468 2.816-2.875.344-.078.713-.045.976.182.552.55.337 1.494.15 2.142 0 .037.032.08.069.085.49-.014.887-.245 1.241-.581.763-.852 1.58-1.968 2.818-1.837.232.038.459.17.58.387.313.624.005 1.314-.424 1.792-.164.158-.37.279-.607.204a.38.38 0 0 1-.21-.222c-.088-.438.166-.844.52-1.075.101-.1.407-.03.323-.257-.063-.09-.158-.1-.258-.101-.602.251-.995.867-1.345 1.383a8.867 8.867 0 0 0-1.03 2.196c-.065.28-.145.643.017.902a.49.49 0 0 0 .527.18c.597-.234 1.121-.713 1.576-1.207 1.044-1.251 1.598-2.8 2.994-3.819.433-.3 1.046-.53 1.567-.253.085.032.153.143.259.101.084-.084.143-.263.311-.22.386.006.829-.013 1.224.025l.026.037-.111.268-2.168 4.403a.289.289 0 0 0-.016.163c.037.064.116.059.174.038.312-.178.555-.51.773-.789a5.3 5.3 0 0 0 .498-.826c.059-.084.128-.19.244-.173.121.016.274-.036.364.049-.139.368-.356.705-.547 1.053-.59.905-1.358 1.957-2.44 2.227-.18.021-.4.036-.538-.096-.21-.16-.22-.412-.277-.64-.02-.026-.058-.031-.09-.02-.46.414-.936.83-1.584.748a.72.72 0 0 1-.48-.387c-.167-.322-.086-.738-.096-1.097-.015-.042-.068-.027-.09-.01-.703.693-1.465 1.318-2.4 1.494-.432.051-.806-.077-1.095-.384-.699-.915-.146-2.115.221-3.006.016-.042.011-.1-.042-.11-.253.02-.496.061-.738.097l-.085.095c-.568 1.053-1.184 2.169-2.205 2.951-.423.305-1.051.514-1.546.233-.516-.356-.561-.989-.496-1.574.124-.664.363-1.28.65-1.876ZM30.702 29.803c.207-.41.382-.837.642-1.226.106-.116.27-.11.412-.125l1.039.014.042.042c-.175.416-.367.827-.584 1.227-.053.105-.164.205-.286.22-.422.01-.87.035-1.271-.004-.042-.042-.005-.1.006-.148ZM37.449 29.732c.015.142.072.295.22.349.284.08.512-.13.723-.293.763-.805 1.225-1.737 1.345-2.807 0-.158.054-.359-.035-.496a.263.263 0 0 0-.185.052c-.513.341-.995.84-1.345 1.346-.366.563-.7 1.142-.723 1.849Zm-5.705 2.18c.723-1.496 1.593-2.938 2.826-4.21 1.197-1.194 2.492-2.16 4.06-2.455.427-.062.907-.023 1.233.268.063.053.137.106.227.075 1.125-.45 2.687-.608 3.814-.045.653.319 1.274.727 1.9 1.12.079.042.042.126 0 .173-.36.4-.663.81-.986 1.226-.037.037-.095.02-.132 0l-1.657-1.14c-.774-.525-1.664-.892-2.672-.727-.111.058-.06.195-.075.3.023 1.035-.344 1.935-.843 2.756-.398.574-.859 1.174-1.535 1.367-.295.062-.58-.029-.758-.267-.493-.75-.058-1.667.303-2.336.414-.726 1.055-1.41 1.748-1.935.016-.026.047-.052.026-.084-.068-.069-.184-.027-.269-.011-1.125.376-2.025 1.37-2.856 2.31-1.483 1.826-2.608 3.805-3.249 5.982-.198.817-.466 2.071.365 2.644.732.393 1.435-.111 1.986-.584.836-.852 1.399-1.836 1.63-2.949.037-.332.128-.785-.177-1.013-.274-.122-.501.104-.686.293-.43.515-.61 1.132-.687 1.797-.19.157-.418.257-.619.409-.38.262-.756.614-1.058.967-.037.01-.042-.032-.053-.053-.043-1.224.393-2.272 1.067-3.214.535-.62 1.222-1.151 2.055-.953.363.096.605.482.672.825.133 1.15-.35 2.157-.87 3.093-.838 1.316-2.162 2.646-3.838 2.487-.644-.039-1.244-.484-1.516-1.076-.634-1.262-.196-2.886.23-4.108l.394-.932Z" clip-rule="evenodd"/><path fill="#fff" fill-rule="evenodd" d="M46.03 36.033c-.011.153-.049.343.067.46.063.063.163.069.243.043.311-.163.513-.494.704-.768.636-.99 1.104-2.048 1.54-3.123.016-.095.043-.226-.046-.29-.258-.122-.46.162-.65.299-.841.835-1.288 1.846-1.709 2.863l-.149.516Zm-5.814-2.815c.02.321.278.623.573.73.058.02.163.048.206-.026.18-.41.35-.88.258-1.355a.415.415 0 0 0-.248-.26.499.499 0 0 0-.337.052c-.296.195-.44.516-.452.859Zm-1.529 2.959c.01.18.099.364.283.423.122.042.254-.01.36-.062.607-.452.968-1.147 1.298-1.779.032-.063.058-.163-.026-.21a3.09 3.09 0 0 1-.873-.69.112.112 0 0 0-.127-.016c-.228.305-.376.643-.536.98-.18.426-.377.847-.379 1.354Zm-.17-2.865c.61-.805 1.42-1.683 2.444-1.748a.789.789 0 0 1 .642.33c.436.644.069 1.471-.092 2.125-.016.058.026.1.068.116a1.1 1.1 0 0 0 .639-.093l.08-.1c.735-2.097 1.828-4.044 3.127-5.902.81-1.073 1.848-2.183 3.053-2.701.285-.099.697-.219.97-.007.305.249.22.681.14 1.013-.033.296-.36.326-.577.394-.01-.006-.021 0-.032-.01.006-.19.107-.36.145-.544.01-.1.027-.184-.015-.28-.053-.094-.169-.063-.248-.037-.407.199-.735.562-1.048.914-1.165 1.352-2.009 2.852-2.784 4.369-.255.526-.52 1.048-.728 1.595-.006.032.005.053.031.074.18-.004.286-.188.423-.283 1.027-.93 1.859-1.998 2.627-3.082.164-.079.354-.078.544-.093l.037.01c-.011.148-.138.264-.207.396-.86 1.236-1.834 2.42-3.02 3.497l-.856.704c-.18.157-.186.4-.277.6-.165.543-.33 1.096-.354 1.692.005.1.042.195.126.249.227.1.407-.115.565-.262 1.16-1.341 1.673-2.985 3.09-4.188.466-.368 1.079-.682 1.68-.406.104.038.183.175.31.112.09-.063.096-.205.222-.2.417-.003.86-.018 1.26.015.038.032.011.085 0 .122l-.287.579-1.774 3.58c-.08.164-.185.337-.176.522.027.08.111.085.18.07.333-.184.576-.49.794-.8.217-.305.392-.626.599-.937.11-.052.264-.03.385-.014.074.069-.022.158-.038.237-.52 1.08-1.247 2.259-2.383 2.856-.264.131-.629.251-.918.092-.232-.16-.21-.45-.315-.671-.02-.032-.074-.027-.1-.011-.47.42-.979.893-1.637.712-.411-.191-.457-.666-.488-1.073-.02-.016-.01-.047-.036-.063l-.053.02c-.46.553-1.043 1.242-1.819 1.176-.295-.022-.552-.308-.641-.572-.271-.86.017-1.804.21-2.631 0-.048-.053-.095-.095-.1l-.649.007-.106.121c-.478.938-1.003 1.843-1.829 2.626-.434.384-.968.704-1.563.528-.495-.213-.625-.752-.623-1.258.104-1.276.678-2.355 1.377-3.387Z" clip-rule="evenodd"/><path fill="#fff" fill-rule="evenodd" d="m47.26 28.167.562-.726.084-.073c1.625-.031 2.895-.998 4.038-2.138-.006.153-.075.295-.128.432-.75 1.764-2.57 3.314-4.538 3.339l-.464-.007c-.084-.021-.026-.106-.005-.148l.451-.679ZM49.59 37.448v-.166h.112c.056 0 .117.012.117.079 0 .083-.062.087-.13.087h-.098Zm0 .07h.094l.142.232h.092l-.154-.236c.08-.01.14-.052.14-.148 0-.106-.063-.153-.19-.153h-.204v.537h.08v-.233Zm.1.43a.465.465 0 1 0 0-.932.466.466 0 1 0 0 .932Zm-.38-.468c0-.22.166-.387.38-.387.21 0 .377.167.377.387 0 .225-.167.39-.377.39a.377.377 0 0 1-.38-.39Z" clip-rule="evenodd"/></svg>