<svg width="65" height="65" viewBox="0 0 65 65" fill="none" xmlns="http://www.w3.org/2000/svg">
<rect x="2.72712" y="2.72712" width="59.0949" height="59.0949" rx="29.5475" fill="#009239" stroke="white" stroke-width="4.54576"/>
<path fill-rule="evenodd" clip-rule="evenodd" d="M31.6893 30.8984C31.6893 30.1671 31.9967 29.253 33.4484 28.914V26.5107C32.2454 26.6498 31.3051 27.9345 31.032 29.3537V27.8126L29.2725 28.7605V36.9567L31.6893 35.6544V30.8984Z" fill="white"/>
<path fill-rule="evenodd" clip-rule="evenodd" d="M36.1186 25.0723V33.2684L33.7329 34.5535V26.3579L36.1186 25.0723Z" fill="white"/>
<path fill-rule="evenodd" clip-rule="evenodd" d="M37.3522 32.6031V25.8131L36.3853 26.334V24.9284C37.6388 23.8256 38.3281 22.5012 38.4531 20.9551L39.7505 20.2563V23.1146L40.9029 22.494V23.9001L39.7505 24.5207V31.3107L37.3522 32.6031Z" fill="white"/>
<path fill-rule="evenodd" clip-rule="evenodd" d="M24.9958 42.4743V32.4707C26.081 31.8862 26.4529 32.3348 26.6403 33.0156C26.8276 33.6963 26.8299 34.6086 26.6759 35.4712C26.5215 36.3338 26.2096 37.1468 25.9356 37.7287C25.6607 38.3105 25.4228 38.6608 25.2901 38.8581C25.1579 39.0558 25.1312 39.1005 25.1245 39.1348C25.1177 39.1695 25.1317 39.1939 25.1637 39.2007C25.1962 39.2075 25.2477 39.1971 25.7402 38.877C26.2331 38.557 27.1675 37.9268 27.8469 36.9012C28.5267 35.8757 28.9514 34.4546 29.0146 33.327C29.0778 32.1994 28.7799 31.3652 28.329 30.8867C27.8785 30.4083 27.2749 30.285 26.7955 30.3193C26.3166 30.3532 25.9614 30.545 24.1309 31.5309L22.6016 32.3547V43.7639L24.9958 42.4743Z" fill="white"/>
<path fill-rule="evenodd" clip-rule="evenodd" d="M47.0789 24.9792L46.7178 24.6862C46.3973 25.6477 45.8958 26.4142 45.4272 26.8692C44.9587 27.3238 44.5235 27.4664 44.1556 27.3888C43.7882 27.3111 43.488 27.0137 43.3503 26.4679C43.2136 25.9226 43.2379 25.129 43.3002 24.419C43.363 23.7089 43.4623 23.0824 43.6185 22.5795C43.7751 22.0767 43.9877 21.6966 44.1832 21.5323C44.3791 21.3675 44.5569 21.4176 44.6553 21.5873C44.7542 21.7566 44.7741 22.0455 44.7343 22.445C44.6946 22.844 44.5958 23.3546 44.4314 23.8173C44.2671 24.28 44.0374 24.6948 43.8699 24.962C43.7029 25.2293 43.5982 25.3484 43.5128 25.4428C43.4266 25.5371 43.3603 25.6062 43.3422 25.6617C43.3242 25.7168 43.3553 25.7583 43.4176 25.7538C43.4799 25.7502 43.5738 25.701 44.0098 25.4152C44.4468 25.129 45.2259 24.6059 45.764 23.8723C46.3021 23.1393 46.5995 22.1954 46.5138 21.4564C46.428 20.7175 45.9594 20.183 45.2137 20.1925C44.4685 20.202 43.4456 20.755 42.6669 21.5205C41.8878 22.2866 41.3524 23.2652 41.0369 24.2547C40.7209 25.2442 40.6252 26.244 40.7069 27.0832C40.7886 27.9219 41.0486 28.6003 41.5222 29.0147C41.9966 29.43 42.6854 29.5821 43.3661 29.4485C44.0477 29.3149 44.7221 28.8955 45.3645 28.2704C46.0064 27.6443 46.6162 26.8123 47.0789 24.9792Z" fill="white"/>
<path fill-rule="evenodd" clip-rule="evenodd" d="M22.6376 31.3938L22.7116 28.6948C20.4591 28.4619 18.5908 29.3589 17.4907 30.4364C16.3902 31.5143 16.0575 32.7728 16.0729 33.7654C16.0878 34.7585 16.4511 35.4848 16.9852 35.9376C17.5187 36.3904 18.2243 36.5687 18.7822 36.9338C19.3401 37.299 19.7514 37.8511 19.7346 38.5318C19.7179 39.2125 19.2733 40.0214 18.4594 40.476C17.6456 40.9306 16.4633 41.0308 15.4888 40.3483L15.1001 43.7776C17.85 43.8525 19.8475 42.533 21.0058 41.0294C22.1641 39.5262 22.4828 37.8389 22.3117 36.6359C22.1402 35.4325 21.4793 34.7129 20.8762 34.2593C20.2727 33.8061 19.7279 33.6183 19.2747 33.1845C18.8219 32.7507 18.4608 32.0709 19.0002 31.4073C19.5401 30.7438 20.9805 30.0969 22.6376 31.3938Z" fill="white"/>
<path fill-rule="evenodd" clip-rule="evenodd" d="M32.8486 22.1976C32.8486 21.0448 33.7826 20.1104 34.9359 20.1104C36.0888 20.1104 37.0232 21.0448 37.0232 22.1976C37.0232 23.3505 36.0888 24.2854 34.9359 24.2854C33.7826 24.2854 32.8486 23.3505 32.8486 22.1976Z" fill="#F8CF00"/>
<path fill-rule="evenodd" clip-rule="evenodd" d="M47.476 28.266L47.6065 28.4659L47.7798 28.4054L47.6078 28.1888C47.6882 28.1143 47.7329 28.0497 47.7387 27.9617C47.7496 27.8371 47.6665 27.7464 47.462 27.8209C47.3808 27.8493 47.3149 27.8769 47.2562 27.9044L47.1943 28.6122L47.3447 28.5571L47.3668 28.303C47.3772 28.2995 47.3884 28.2967 47.3996 28.2938C47.413 28.2904 47.4267 28.2869 47.4394 28.2822C47.4421 28.2809 47.4468 28.279 47.4521 28.2769C47.461 28.2733 47.4715 28.2691 47.476 28.266ZM47.46 27.9423C47.4652 27.9405 47.4704 27.9387 47.4756 27.9369C47.5509 27.9094 47.6038 27.9261 47.5979 27.9924C47.5911 28.0732 47.5302 28.1251 47.4449 28.1558C47.4241 28.1635 47.4006 28.1689 47.379 28.1739L47.3952 27.9685C47.416 27.9576 47.4382 27.9499 47.46 27.9423Z" fill="white"/>
<path fill-rule="evenodd" clip-rule="evenodd" d="M46.8919 28.2938C46.9361 28.6098 47.2264 28.8297 47.5433 28.7854C47.8584 28.7407 48.0791 28.4487 48.0362 28.1318C47.9911 27.8163 47.7004 27.5964 47.3839 27.6416C47.0693 27.6867 46.8477 27.977 46.8919 28.2938ZM46.7962 28.3069C46.7466 27.9399 47.002 27.5982 47.3704 27.5472C47.7392 27.4953 48.0782 27.7508 48.1297 28.1182C48.1825 28.4875 47.9243 28.8279 47.5564 28.8802C47.1871 28.9321 46.8477 28.6762 46.7962 28.3069Z" fill="white"/>
</svg>
