<svg xmlns="http://www.w3.org/2000/svg" width="26" height="26" fill="none"><path fill="" fill-rule="evenodd" d="M.135 13C.135 5.905 5.905.135 13 .135c7.095 0 12.864 5.77 12.864 12.865 0 7.096-5.769 12.865-12.864 12.865C5.904 25.865.135 20.095.135 13Zm16.386 2.274 3.087-7.095c.488-1.137-.65-2.275-1.787-1.787l-7.096 3.087a2.433 2.433 0 0 0-1.246 1.246l-3.06 7.122c-.515 1.111.649 2.248 1.76 1.76l7.095-3.086a2.433 2.433 0 0 0 1.247-1.247ZM13 14.761a1.76 1.76 0 1 0 0-3.521 1.76 1.76 0 0 0 0 3.52Z" clip-rule="evenodd"/></svg>