<svg xmlns="http://www.w3.org/2000/svg" width="73" height="77" fill="none"><g filter="url(#a)"><rect width="69" height="69" x="2" y="2" fill="#fff" rx="24"/></g><path stroke="#F1DE02" stroke-linecap="round" stroke-linejoin="round" stroke-width="2" d="M60.066 6a21.762 21.762 0 0 1 4.455 3.692 22.236 22.236 0 0 1 3.274 4.63l.237.454C69.97 18.572 71 22.742 71 31.632v9.971l-.005 1.044c-.082 8.52-1.19 12.493-3.2 16.266-1.74 3.262-4.154 5.94-7.166 7.957"/><path stroke="#009639" stroke-linecap="round" stroke-linejoin="round" stroke-width="2" d="M67 12.918a21.748 21.748 0 0 0-3.68-4.456 22.165 22.165 0 0 0-4.615-3.273l-.452-.237c-3.784-1.939-7.94-2.969-16.8-2.969h-9.94l-1.04.005c-8.491.082-12.451 1.19-16.212 3.2-3.251 1.74-5.92 4.154-7.93 7.166"/><path stroke="#F40000" stroke-linecap="round" stroke-linejoin="round" stroke-width="2" d="M8.48 9.663a22.161 22.161 0 0 0-3.274 4.615l-.237.452C3.03 18.514 2 22.67 2 31.53v9.94l.005 1.04c.082 8.491 1.19 12.451 3.2 16.212 1.74 3.251 4.554 5.92 7.566 7.93"/><path stroke="#FF8300" stroke-linecap="round" stroke-linejoin="round" stroke-width="2" d="M9.993 64.504a22.16 22.16 0 0 0 4.615 3.273l.453.237c3.783 1.94 7.94 2.97 16.8 2.97H41.8l1.04-.006c8.492-.082 12.452-1.19 16.213-3.2.579-.31 1.139-.641 1.68-.993 2.5-1.625 4.398-3.697 6.05-6.173"/><path stroke="#FFCF08" stroke-linecap="round" stroke-linejoin="round" stroke-width="2" d="M67.795 58.939c-1.74 3.251-4.154 5.92-7.166 7.93"/><mask id="b" width="15" height="16" x="29" y="40" maskUnits="userSpaceOnUse" style="mask-type:luminance"><path fill="#fff" fill-rule="evenodd" d="M29.009 40.99h14.799v14.799h-14.8v-14.8Z" clip-rule="evenodd"/></mask><g mask="url(#b)"><path fill="#1D1D1B" fill-rule="evenodd" d="M36.408 52.998c2.728 0 4.61-1.776 4.61-4.334V43.78h-9.219v4.884c0 2.558 1.882 4.334 4.61 4.334m0 2.79c-4.166 0-7.4-3.044-7.4-7.124V40.99h14.799v7.675c0 4.08-3.235 7.125-7.4 7.125" clip-rule="evenodd"/></g><mask id="c" width="15" height="15" x="29" y="17" maskUnits="userSpaceOnUse" style="mask-type:luminance"><path fill="#fff" fill-rule="evenodd" d="M29.008 17.1h14.8v14.672h-14.8V17.1Z" clip-rule="evenodd"/></mask><g mask="url(#c)"><path fill="#1D1D1B" fill-rule="evenodd" d="M36.408 19.89c-2.727 0-4.609 1.776-4.609 4.334v4.757h9.218v-4.757c0-2.558-1.882-4.334-4.61-4.334m0-2.79c4.166 0 7.4 3.044 7.4 7.124v7.548H29.008v-7.548c0-4.08 3.235-7.124 7.4-7.124" clip-rule="evenodd"/></g><mask id="d" width="15" height="16" x="17" y="28" maskUnits="userSpaceOnUse" style="mask-type:luminance"><path fill="#fff" fill-rule="evenodd" d="M17 28.981h14.8v14.8H17v-14.8Z" clip-rule="evenodd"/></mask><g mask="url(#d)"><path fill="#1D1D1B" fill-rule="evenodd" d="M19.79 36.38c0 2.728 1.777 4.61 4.335 4.61h4.884v-9.218h-4.884c-2.558 0-4.334 1.881-4.334 4.609m-2.791 0c0-4.166 3.044-7.4 7.125-7.4h7.674v14.8h-7.674c-4.08 0-7.125-3.235-7.125-7.4" clip-rule="evenodd"/></g><mask id="e" width="15" height="16" x="41" y="28" maskUnits="userSpaceOnUse" style="mask-type:luminance"><path fill="#fff" fill-rule="evenodd" d="M41.017 28.981h14.8v14.8h-14.8v-14.8Z" clip-rule="evenodd"/></mask><g mask="url(#e)"><path fill="#1D1D1B" fill-rule="evenodd" d="M53.026 36.38c0-2.727-1.776-4.608-4.334-4.608h-4.884v9.217h4.884c2.558 0 4.334-1.881 4.334-4.609m2.79 0c0 4.165-3.044 7.4-7.124 7.4h-7.675V28.981h7.675c4.08 0 7.124 3.234 7.124 7.4" clip-rule="evenodd"/></g><path fill="#F1DE02" fill-rule="evenodd" d="M53.025 36.38c0-2.727-1.776-4.608-4.334-4.608h-4.883v9.218h4.883c2.558 0 4.334-1.882 4.334-4.61" clip-rule="evenodd"/><path fill="#009639" fill-rule="evenodd" d="M36.408 19.89c-2.727 0-4.609 1.776-4.609 4.334v4.757h9.218v-4.757c0-2.558-1.881-4.334-4.61-4.334" clip-rule="evenodd"/><path fill="#FF8300" fill-rule="evenodd" d="M36.408 52.998c2.728 0 4.61-1.776 4.61-4.334V43.78h-9.219v4.884c0 2.558 1.882 4.334 4.61 4.334" clip-rule="evenodd"/><path fill="#F40000" fill-rule="evenodd" d="M19.79 36.38c0 2.728 1.777 4.61 4.334 4.61h4.884v-9.218h-4.884c-2.557 0-4.333 1.881-4.333 4.609" clip-rule="evenodd"/><defs><filter id="a" width="73" height="75" x="0" y="2" color-interpolation-filters="sRGB" filterUnits="userSpaceOnUse"><feFlood flood-opacity="0" result="BackgroundImageFix"/><feColorMatrix in="SourceAlpha" result="hardAlpha" values="0 0 0 0 0 0 0 0 0 0 0 0 0 0 0 0 0 0 127 0"/><feMorphology in="SourceAlpha" operator="dilate" radius="2" result="effect1_dropShadow_948_1511"/><feOffset dy="4"/><feColorMatrix values="0 0 0 0 0.845109 0 0 0 0 0.845109 0 0 0 0 0.845109 0 0 0 0.5 0"/><feBlend in2="BackgroundImageFix" result="effect1_dropShadow_948_1511"/><feBlend in="SourceGraphic" in2="effect1_dropShadow_948_1511" result="shape"/></filter></defs></svg>