<svg width="81" height="40" viewBox="0 0 81 40" fill="none" xmlns="http://www.w3.org/2000/svg">
<path fill-rule="evenodd" clip-rule="evenodd" d="M41.7705 18.095H59.6285V0.206055H41.7705V18.095Z" fill="#FF8000"/>
<path fill-rule="evenodd" clip-rule="evenodd" d="M35.9583 6.57944V3.21777H23.1259V6.57944H22.1816V18.0955H36.9024V6.57944H35.9583Z" fill="#009239"/>
<path fill-rule="evenodd" clip-rule="evenodd" d="M78.2911 6.57944V3.21777H65.4587V6.57944H64.5146V18.0955H79.2352V6.57944H78.2911Z" fill="#EEDB02"/>
<path fill-rule="evenodd" clip-rule="evenodd" d="M2.15869 15.5298H14.5157V2.42139H2.15869V15.5298Z" fill="#F00000"/>
<path fill-rule="evenodd" clip-rule="evenodd" d="M41.7705 39.4212H59.6285V21.5322H41.7705V39.4212Z" fill="#FF8000"/>
<path fill-rule="evenodd" clip-rule="evenodd" d="M23.1259 24.5435V27.9051H22.1816V39.4212H36.9026V27.9051H35.9583V24.5435H23.1259Z" fill="#009239"/>
<path fill-rule="evenodd" clip-rule="evenodd" d="M65.4587 24.5435V27.9051H64.5146V39.4212H79.2352V27.9051H78.2909V24.5435H65.4587Z" fill="#EEDB02"/>
<path fill-rule="evenodd" clip-rule="evenodd" d="M2.15869 36.8555H14.5157V23.7471H2.15869V36.8555Z" fill="#F00000"/>
<path fill-rule="evenodd" clip-rule="evenodd" d="M56.2553 0.206055V7.31015H45.1439V0.206055H41.7705V18.095H45.1439V10.6842H56.2553V18.095H59.6285V0.206055H56.2553Z" fill="#1D1E1C"/>
<path fill-rule="evenodd" clip-rule="evenodd" d="M9.31858 14.7218H3.41493V3.57948H9.31858C12.4105 3.57948 14.5572 5.85373 14.5572 9.15043C14.5572 12.4475 12.4105 14.7218 9.31858 14.7218M9.31858 0.206055H0.0415039V18.0952H9.31858C14.2505 18.0952 17.9307 14.1853 17.9307 9.15043C17.9307 4.11618 14.2505 0.206055 9.31858 0.206055" fill="#1D1E1C"/>
<path fill-rule="evenodd" clip-rule="evenodd" d="M77.4459 12.0633H66.3034V8.81814C66.3034 5.72606 68.5779 3.57948 71.8743 3.57948C75.1717 3.57948 77.4459 5.72606 77.4459 8.81814V12.0633ZM71.8743 0.206055C66.8401 0.206055 62.9302 3.88599 62.9302 8.81814V12.3673V15.4365V18.082H66.3034V15.4365H77.4459V18.082H80.8191V15.4365V12.3673V8.81814C80.8191 3.88599 76.9092 0.206055 71.8743 0.206055V0.206055Z" fill="#1D1E1C"/>
<path fill-rule="evenodd" clip-rule="evenodd" d="M35.1056 12.0633H23.9631V8.81814C23.9631 5.72606 26.2375 3.57948 29.534 3.57948C32.8313 3.57948 35.1056 5.72606 35.1056 8.81814V12.0633ZM29.534 0.206055C24.4998 0.206055 20.5898 3.88599 20.5898 8.81814V12.3673V15.4365V18.082H23.9631V15.4365H35.1056V18.082H38.4788V15.4365V12.3673V8.81814C38.4788 3.88599 34.5689 0.206055 29.534 0.206055V0.206055Z" fill="#1D1E1C"/>
<path fill-rule="evenodd" clip-rule="evenodd" d="M56.2553 28.6432H45.1439V21.5391H41.7705V39.428H45.1439V32.017H56.2553V39.428H59.6285V21.5391H56.2553V28.6432Z" fill="#1D1E1C"/>
<path fill-rule="evenodd" clip-rule="evenodd" d="M9.27708 36.0543H3.37363V24.912H9.27708C12.3692 24.912 14.5157 27.1863 14.5157 30.4829C14.5157 33.7801 12.3692 36.0543 9.27708 36.0543M9.27707 21.5386H0V39.4277H9.27707C14.209 39.4277 17.8892 35.5178 17.8892 30.4829C17.8892 25.4487 14.209 21.5386 9.27707 21.5386" fill="#1D1E1C"/>
<path fill-rule="evenodd" clip-rule="evenodd" d="M77.4459 33.3958H66.3034V30.1507C66.3034 27.0586 68.5779 24.912 71.8743 24.912C75.1717 24.912 77.4459 27.0586 77.4459 30.1507V33.3958ZM71.8743 21.5386C66.8401 21.5386 62.9302 25.2185 62.9302 30.1507V33.6998V36.769V39.4145H66.3034V36.769H77.4459V39.4145H80.8191V36.769V33.6998V30.1507C80.8191 25.2185 76.9092 21.5386 71.8743 21.5386V21.5386Z" fill="#1D1E1C"/>
<path fill-rule="evenodd" clip-rule="evenodd" d="M35.1056 33.3958H23.9631V30.1507C23.9631 27.0586 26.2375 24.912 29.534 24.912C32.8313 24.912 35.1056 27.0586 35.1056 30.1507V33.3958ZM29.534 21.5386C24.4998 21.5386 20.5898 25.2185 20.5898 30.1507V33.6998V36.769V39.4145H23.9631V36.769H35.1056V39.4145H38.4788V36.769V33.6998V30.1507C38.4788 25.2185 34.5689 21.5386 29.534 21.5386V21.5386Z" fill="#1D1E1C"/>
</svg>
