<svg width="23" height="23" viewBox="0 0 23 23" fill="none" xmlns="http://www.w3.org/2000/svg">
<g clip-path="url(#clip0_1002_1222)">
<path d="M17.1248 3.24023C17.1783 3.10869 17.0695 2.9796 17.0695 2.9796C17.0695 2.9796 16.2152 1.52622 13.1925 1.20378C11.574 1.0313 9.37073 1.35874 7.8264 2.19156C5.02822 3.69929 4.60922 6.18302 4.60922 6.18302C4.59347 6.24383 4.56665 6.42898 4.62957 6.50797C4.69364 6.58833 4.78689 6.58685 4.90259 6.54781C5.89015 6.21421 8.83355 5.23811 10.691 4.74515C13.3344 4.04434 15.5059 3.61789 16.8997 3.38041C16.9987 3.36363 17.0875 3.33121 17.1248 3.24023Z" fill="#FFBB36"/>
<path d="M20.1432 14.9461C18.5611 18.4993 15.5257 20.9722 11.5476 21.0285C8.65067 21.0696 6.09419 20.0771 4.24788 18.3461L3.13123 18.8238L3.13308 17.0949C1.91647 15.4539 1.21107 13.3781 1.21107 11.0201C1.21107 4.98043 5.837 0.219563 12.2886 0.219563C13.3416 0.219563 14.2934 0.383439 15.0109 0.54599C13.9054 0.192195 12.8068 0.000488281 11.5839 0.000488281C4.6599 0.000488281 0.000242779 5.6149 0 11.4049C0 17.7145 4.94978 22.9995 11.4467 22.9995C17.6522 22.9995 21.0001 18.6245 22.0708 15.9933L20.1432 14.9461Z" fill="#0066B3"/>
<path d="M18.537 13.698C19.4475 13.5947 20.0775 13.2287 20.4232 12.8893C20.7383 12.5797 20.8119 12.1534 20.8123 11.8367C20.825 11.3714 20.8123 9.90315 20.8123 9.90315L18.4027 10.4245C18.4027 10.4245 18.4025 10.6061 18.4018 10.9874C18.4063 11.3597 18.5857 11.5624 18.976 11.4906C19.0983 11.4706 19.2866 11.4106 19.2866 11.4106L19.2899 11.8707C19.2878 11.8575 19.3255 12.1273 18.7183 12.2473C17.9236 12.3721 17.5625 11.8831 17.553 11.019C17.5687 10.093 18.0923 9.55896 18.7275 9.4127C19.4421 9.24882 19.8466 9.4191 20.0843 9.45534C20.8824 9.57485 21.1087 8.37828 20.3827 8.09761C19.846 7.88143 19.1497 7.84236 18.4859 7.97489C17.5997 8.15164 15.8567 8.89348 15.8519 11.3038C15.8566 13.2191 17.2687 13.8433 18.537 13.698M10.7042 15.7508C10.7042 15.7508 11.4435 15.4972 11.5075 15.4748C12.1017 15.2697 12.3182 14.9164 12.3156 14.3049C12.308 13.6408 12.307 12.346 12.307 12.346L14.0261 14.3268C14.3053 14.6152 14.6553 14.6399 14.9757 14.5458C15.307 14.4489 15.5828 14.146 15.5912 13.7188C15.5939 12.2884 15.5905 8.79741 15.5905 8.79741C15.5905 8.79741 15.1462 8.89165 14.7775 8.99622C14.3532 9.11644 14.0268 9.38696 14.0268 10.1011C14.0268 10.354 14.0258 11.8048 14.0258 11.8048C14.0258 11.8048 13.0583 10.5914 12.4256 9.95851C12.0874 9.6206 11.5277 9.82233 11.5277 9.82233L10.7028 10.072L10.7042 15.7508ZM10.1837 10.1999C10.1837 10.1999 9.666 10.3517 9.24467 10.5039C8.69762 10.7017 8.38225 11.0182 8.38225 11.8463C8.38225 12.6069 8.38093 16.5656 8.38093 16.5656C8.38093 16.5656 8.86017 16.4017 9.30697 16.2332C9.94221 15.9937 10.1819 15.6669 10.1819 14.9999C10.1819 14.4266 10.1837 10.1999 10.1837 10.1999ZM7.61447 11.3229C7.13929 11.107 6.7314 11.3477 6.55816 11.6138L5.09752 14.0981L5.09496 12.0953L3.37306 12.8086L3.36768 18.4723L4.58062 17.9638C4.58062 17.9638 4.81872 17.8963 4.96242 17.6705C5.09447 17.4625 5.08955 17.1136 5.08955 17.1136L5.09105 15.3177L6.44666 16.7562C6.74433 17.0653 7.29125 17.224 7.77382 16.8342C8.21019 16.4818 8.1426 15.881 7.89919 15.612L6.66426 14.3689C6.66426 14.3689 7.75107 12.656 7.92874 12.3698C8.16459 11.9897 8.04593 11.5189 7.61447 11.3229Z" fill="#EC1D23"/>
<path d="M6.94008 17.9802C6.87598 18.1279 7.02218 18.2744 7.02218 18.2744C7.6489 19.0607 10.4316 20.0579 13.4521 19.3279C18.0647 18.2123 19.0394 14.949 19.1498 14.4882C19.1724 14.3943 19.1904 14.2432 19.1032 14.1525C19.0301 14.0768 18.9262 14.076 18.7819 14.1094C15.5782 14.8625 10.247 16.4899 7.17341 17.8068C7.04112 17.8635 6.98124 17.8843 6.94008 17.9802Z" fill="#FFBB36"/>
<path d="M4.20483 10.5576C4.20062 10.2454 3.95793 10.0751 3.53856 10.2856L3.53768 11.2892C3.53768 11.2892 3.67328 11.2291 3.77275 11.1828C4.01796 11.069 4.21059 10.8645 4.20483 10.5576ZM3.53028 9.65051C3.59557 9.62523 3.65971 9.59711 3.72254 9.56624C3.94974 9.4556 4.11143 9.25041 4.11331 8.98472C4.11564 8.68213 3.86647 8.60393 3.53077 8.77747L3.53028 9.65051ZM5.30559 10.4142C5.31923 11.2063 4.7487 11.6277 4.00547 11.9356L2.48302 12.5824L2.47949 8.45775C2.47949 8.45775 3.43869 8.0667 3.75163 7.95286C4.64117 7.62917 5.16423 8.01936 5.16423 8.6136C5.16423 9.01012 4.9945 9.34716 4.62614 9.64333C4.9889 9.70383 5.29864 10.0018 5.30559 10.4142ZM8.19565 6.93288C8.19565 6.58549 7.95671 6.4931 7.6677 6.57629C7.43403 6.64316 7.16188 6.74943 7.16188 6.74943L7.16 9.3137C7.1572 9.56911 7.11767 9.88885 6.80301 9.96806C6.56149 10.029 6.44727 9.86779 6.44703 9.61285L6.44361 7.51401C6.44361 7.16483 6.20067 7.06028 5.91258 7.15586C5.58874 7.26401 5.39414 7.34188 5.39414 7.34188C5.39414 7.34188 5.39789 9.15771 5.39346 9.88386C5.38931 10.735 5.97621 11.16 6.87076 10.8958C7.65991 10.6625 8.18685 10.2209 8.19682 9.08724L8.19565 6.93288ZM16.6568 7.99263C16.8841 7.94359 17.026 7.78283 17.026 7.50505C17.026 7.25479 17.0269 7.06449 17.0269 7.06449L15.792 7.33431L15.7942 6.60778C15.7942 6.60778 16.3995 6.47946 16.5676 6.4428C16.7788 6.3965 16.8895 6.28135 16.8895 6.03996C16.8895 5.81482 16.888 5.61998 16.888 5.61998L15.7938 5.85216L15.7936 5.27612C15.7936 5.27612 16.3624 5.15738 16.669 5.09295C16.9078 5.04276 16.9866 4.8792 16.9866 4.65412C16.9866 4.50755 16.9889 4.21745 16.9889 4.21745C16.4431 4.31381 15.4056 4.5211 14.7586 4.6693L14.7498 8.42928C14.7498 8.42928 15.9801 8.13949 16.6568 7.99263ZM9.52063 7.84077C9.52151 7.84006 10.1315 7.52493 10.1249 7.02503C10.1189 6.59756 9.72514 6.69112 9.52087 6.76605L9.52063 7.84077ZM9.5222 8.42079C9.5222 8.42079 9.52017 9.14087 9.51915 9.43143C9.51666 9.70383 9.33067 9.90055 9.09519 9.99051C8.89834 10.058 8.47999 10.202 8.47999 10.202L8.48162 6.33015C8.48162 6.33015 9.34548 6.02922 9.85346 5.91118C10.6428 5.72757 11.2043 6.08675 11.1941 6.7244C11.1892 7.3315 10.8505 7.69989 10.5463 7.95209L11.2149 8.59395C11.4203 8.79299 11.4346 9.15279 11.2036 9.37023C11.0666 9.49894 10.7001 9.63234 10.4132 9.34037L9.5222 8.42079ZM18.2626 5.7583C18.2639 5.7583 18.8653 5.52925 18.8584 5.04704C18.8522 4.63922 18.4506 4.71305 18.261 4.75538L18.2626 5.75828M17.2534 7.8799L17.255 4.1673C17.255 4.1673 18.339 3.97568 18.619 3.93966C19.3961 3.83986 19.9175 4.27117 19.9068 4.88385C19.9027 5.42267 19.5642 5.74691 19.2765 5.94144C19.2765 5.94144 19.8051 6.537 19.9468 6.69454C20.1371 6.90693 20.1286 7.26999 19.847 7.44782C19.5703 7.62231 19.2962 7.53102 19.1371 7.3553L18.2645 6.33187C18.2645 6.33187 18.2673 6.96133 18.2666 7.23616C18.264 7.50973 18.1058 7.70916 17.822 7.76787L17.2534 7.8799Z" fill="#EC1D23"/>
<path d="M14.5065 6.32181L12.9688 6.67101C12.9688 6.67101 12.9669 6.83347 12.9667 7.0987C12.9688 7.29758 13.1082 7.42669 13.3089 7.38538C13.4354 7.35911 13.5367 7.33563 13.5367 7.33563L13.5391 7.7627C13.5407 7.93165 13.2872 8.04229 13.0239 8.0362C12.655 8.02662 12.4504 7.73994 12.4451 7.19444C12.4566 6.47719 12.794 6.05612 13.2536 5.93855C13.4831 5.87944 13.692 5.90822 13.8542 5.92928C14.2504 5.99328 14.4785 5.80226 14.4866 5.47484C14.4949 5.12414 14.1838 4.90725 13.5161 4.9304C12.0684 4.98039 11.3281 6.02056 11.3281 7.26196C11.3281 8.5333 12.1586 9.09487 13.1724 8.91166C13.7453 8.79612 14.0302 8.61009 14.2277 8.43692C14.4251 8.26377 14.5065 8.00477 14.5065 7.78362V6.32181Z" fill="#EC1D23"/>
<path d="M8.4478 2.16302C6.75197 2.91162 5.607 4.69355 5.54408 5.44782C5.51929 5.74767 5.91683 5.79071 5.95424 5.47231C6.3121 4.09642 7.40732 2.79921 8.4478 2.16302ZM14.0674 3.44154C14.982 3.21716 15.4843 3.18331 15.4934 2.77471C15.5093 2.09052 13.5573 1.29716 11.7699 1.44086C13.591 1.56256 14.6834 2.26366 14.6894 2.75226C14.6929 3.0613 14.4251 3.33403 14.0674 3.44154ZM14.6342 18.5644C16.0066 18.0246 17.3255 16.9935 18.0552 15.449C18.2657 15.0026 17.6568 14.7746 17.485 15.2987C17.0579 16.3969 16.1802 17.6862 14.6342 18.5644Z" fill="white"/>
</g>
<defs>
<clipPath id="clip0_1002_1222">
<rect width="22.0708" height="23" fill="white"/>
</clipPath>
</defs>
</svg>
