<svg xmlns="http://www.w3.org/2000/svg" width="24" height="24" fill="none"><g clip-path="url(#a)"><rect width="24" height="24" fill="#009239" rx="7.2"/><mask id="b" width="24" height="24" x="0" y="0" maskUnits="userSpaceOnUse" style="mask-type:luminance"><rect width="24" height="24" fill="#fff" rx="7.2"/></mask><g fill-rule="evenodd" clip-rule="evenodd" mask="url(#b)"><path fill="#fff" d="M12.27 11.633c0-.338.141-.76.812-.917v-1.11c-.556.064-.99.658-1.116 1.313v-.712l-.813.438v3.787l1.116-.602v-2.197ZM14.316 8.941v3.787l-1.103.594V9.535l1.103-.594ZM14.886 12.42V9.285l-.447.24v-.65c.58-.509.898-1.12.955-1.835l.6-.323v1.32l.532-.286v.65l-.532.286v3.137l-1.108.598ZM9.177 16.98v-4.62c.501-.27.673-.064.76.25.086.315.087.737.016 1.135a4.315 4.315 0 0 1-.342 1.043c-.127.27-.237.431-.298.522a.525.525 0 0 0-.077.128c-.003.016.004.027.019.03.015.004.038-.001.266-.15.228-.147.66-.438.973-.912.314-.474.51-1.13.54-1.651.029-.521-.109-.907-.317-1.128a.878.878 0 0 0-.709-.262c-.22.016-.385.104-1.23.56l-.707.38v5.272l1.106-.596ZM19.379 8.899l-.167-.136c-.148.444-.38.798-.596 1.009-.216.21-.418.276-.587.24-.17-.036-.309-.174-.373-.426-.063-.252-.051-.618-.023-.946.03-.328.075-.618.147-.85.073-.232.17-.408.261-.484.09-.076.173-.053.218.025.046.079.055.212.037.397-.018.184-.064.42-.14.634a2.798 2.798 0 0 1-.26.529 1.398 1.398 0 0 1-.165.222c-.04.043-.07.075-.078.1-.009.026.006.045.035.043.028-.001.072-.024.273-.156.202-.132.562-.374.81-.713.25-.339.387-.775.347-1.116-.04-.341-.256-.588-.6-.584-.345.004-.818.26-1.177.614-.36.354-.608.806-.753 1.263a3.33 3.33 0 0 0-.153 1.307c.038.387.158.7.377.892.219.192.537.262.852.2.315-.061.626-.255.923-.544.297-.29.578-.674.792-1.52ZM8.087 11.862l.035-1.247c-1.041-.108-1.904.307-2.413.804a2.095 2.095 0 0 0-.655 1.538c.007.46.175.795.422 1.004.246.21.572.291.83.46.258.169.448.424.44.739-.008.314-.213.688-.589.898a1.3 1.3 0 0 1-1.372-.06l-.18 1.585c1.27.035 2.193-.575 2.728-1.27.536-.694.683-1.474.604-2.03a1.615 1.615 0 0 0-.663-1.097c-.28-.21-.531-.297-.74-.497-.21-.2-.376-.514-.127-.821.25-.307.915-.605 1.68-.006Z"/><path fill="#F8CF00" d="M12.805 7.613a.964.964 0 1 1 1.928 0 .964.964 0 0 1-1.928 0Z"/><path fill="#fff" d="m19.563 10.417.06.092.08-.028-.08-.1c.038-.034.058-.064.061-.105.005-.057-.033-.1-.128-.065a.952.952 0 0 0-.095.039l-.028.327.07-.026.01-.117.014-.004a.188.188 0 0 0 .019-.006l.006-.002a.082.082 0 0 0 .01-.005Zm-.008-.15.008-.002c.034-.013.059-.005.056.025-.003.038-.031.062-.07.076-.01.004-.021.006-.031.008l.007-.095.03-.012Z"/><path fill="#fff" d="M19.293 10.43c.02.146.154.247.3.227a.266.266 0 1 0-.074-.529.267.267 0 0 0-.226.302Zm-.044.006a.312.312 0 0 1 .265-.351.312.312 0 1 1-.265.351Z"/></g></g><defs><clipPath id="a"><path fill="#fff" d="M0 0h24v24H0z"/></clipPath></defs></svg>